PathFileType	4	(X/Y/Z)	C:\Users\WrightLab\Desktop\Jo\P1.2Trial14.trc
DataRate	CameraRate	NumFrames	NumMarkers	Units	OrigDataRate	OrigDataStartFrame	OrigNumFrames
100.00	100.00	       22	19	mm	100.00	821	       938
Frame#	Time	Headset_Front			Headset_Back			Headset_Left			Headset_Right			Left_Shoulder			Right_Shoulder			Sternum			C7			Left Elbow			Right Elbow			Left Wrist			Right Wrist			Left ASIS			Right ASIS			S2			Left Knee			Right Knee			Left Ankle			Right Ankle			
		X1	Y1	Z1	X2	Y2	Z2	X3	Y3	Z3	X4	Y4	Z4	X5	Y5	Z5	X6	Y6	Z6	X7	Y7	Z7	X8	Y8	Z8	X9	Y9	Z9	X10	Y10	Z10	X11	Y11	Z11	X12	Y12	Z12	X13	Y13	Z13	X14	Y14	Z14	X15	Y15	Z15	X16	Y16	Z16	X17	Y17	Z17	X18	Y18	Z18	X19	Y19	Z19	

821	8.200																						-690.58112	1272.79285	-1284.28247				-479.24094	976.29041	-1088.56958				-385.19800	729.81549	-1050.82776							-733.91138	874.50256	-1228.24939				-403.04825	419.21487	-1355.73914							
822	8.210																						-686.07605	1271.68921	-1289.95178				-478.22427	974.18384	-1093.95935				-387.64932	725.64319	-1057.74207							-728.96967	872.34778	-1236.29260				-401.99249	416.05011	-1359.51746							
823	8.220																						-681.08270	1270.82141	-1296.08777				-476.42429	974.05811	-1099.45471				-388.47250	724.15906	-1060.62317							-723.34570	870.98755	-1239.28259				-399.21478	414.29364	-1366.22424							
824	8.230																						-676.01294	1269.08826	-1300.27893				-474.35629	972.55408	-1103.90808				-390.89996	721.83405	-1064.78137							-717.15076	867.67273	-1250.45776				-396.28253	413.25461	-1369.51794							
825	8.240																						-670.76520	1267.41992	-1304.04590				-471.01035	971.10883	-1108.07935				-391.52454	719.95435	-1069.39551							-711.06354	866.87634	-1251.67419				-391.30246	412.52948	-1376.23010							
826	8.250																						-665.39648	1265.73047	-1307.72937				-466.30008	969.59442	-1109.82520				-391.10614	718.19043	-1070.72034							-706.25250	865.21185	-1258.80566				-386.29907	411.02634	-1378.95825							
827	8.260																						-659.95032	1264.06482	-1311.24756				-462.83957	967.36212	-1112.90356				-390.90985	716.49469	-1074.85474							-699.13617	865.79584	-1259.24768				-379.92670	411.34030	-1386.44019							
828	8.270																						-654.42108	1262.41370	-1314.62256				-458.11139	966.66333	-1114.40857				-388.88474	714.11658	-1077.57629							-693.81317	862.09308	-1271.72766				-375.29340	409.87512	-1389.86389							
829	8.280																						-649.02325	1260.11963	-1316.04907				-453.99625	963.84845	-1120.53699				-384.59491	713.30139	-1078.74194							-687.17499	861.46442	-1274.26453				-368.93344	407.72302	-1393.63562							
830	8.290																						-643.12006	1259.17297	-1320.90735				-448.21536	962.10718	-1122.96130				-382.21976	711.30988	-1082.45020							-682.05975	859.35437	-1279.45435				-360.54288	406.26721	-1402.14331							
831	8.300																						-637.39264	1257.60339	-1323.80847				-443.53867	960.42499	-1128.45703				-379.32910	708.42719	-1087.34912							-675.07867	856.57776	-1288.33728				-354.31226	404.29718	-1406.52417							
832	8.310																						-631.60535	1256.14612	-1326.28687				-437.59021	958.69592	-1129.85645				-373.78458	706.15466	-1091.14478							-668.32062	855.86389	-1289.85986				-346.66135	400.74023	-1414.37329							
833	8.320																						-625.82324	1254.79382	-1328.44104				-433.36542	956.39667	-1134.14026				-369.48395	703.54651	-1095.88293							-663.24597	852.41125	-1300.25342				-338.73178	398.47360	-1418.75220							
834	8.330																						-619.91040	1253.57214	-1330.02161				-427.22177	955.00891	-1133.71265				-362.94714	702.82782	-1095.74902							-655.61945	852.31726	-1301.09070				-332.43570	395.87128	-1422.96594							
835	8.340																						-613.71716	1253.92981	-1335.00903				-423.14517	954.12128	-1140.10291				-358.26337	700.28589	-1101.14832							-650.16815	850.96228	-1310.51221				-325.46188	394.67722	-1427.49902							
836	8.350																						-607.75635	1252.91797	-1335.85596				-417.48407	953.28760	-1143.10315				-351.39182	699.55817	-1101.94983							-643.48553	850.60706	-1313.08911				-317.87189	393.82877	-1430.89001							
837	8.360																						-601.90253	1253.06177	-1338.61060				-413.12250	952.13892	-1147.35217				-345.32816	699.65356	-1105.80200							-636.63458	851.06812	-1318.08215				-311.86929	393.26025	-1433.53235							
838	8.370																						-596.35175	1253.80078	-1342.01013				-406.65735	951.43121	-1148.74341				-339.59927	697.90063	-1110.79346							-630.90668	849.04352	-1327.38037				-305.73480	394.10568	-1436.13342							
839	8.380																						-590.63806	1255.10522	-1346.72473				-403.00928	950.71289	-1154.77075				-331.95953	698.26324	-1117.18408							-623.61560	851.29187	-1326.22058				-300.15747	395.50607	-1439.55798							
840	8.390																						-585.28687	1254.94580	-1347.72986				-395.40042	952.21405	-1156.67883				-325.85303	699.28772	-1121.65601							-617.61340	851.25873	-1334.97754				-295.26413	396.83307	-1443.00964							
841	8.400																						-579.59491	1256.64307	-1353.72583				-390.72311	951.97638	-1158.58752				-318.52655	699.56677	-1124.31836							-611.06464	852.50745	-1338.58875				-290.50980	398.89246	-1444.28821							
842	8.410																						-574.84155	1257.09998	-1356.32690				-384.48920	953.30884	-1164.84424				-312.11676	701.76343	-1129.46887							-603.87848	853.20587	-1340.25842				-285.28171	400.83170	-1445.95178							
